<?xml version="1.0" encoding="UTF-8" standalone="no"?>
<!-- Created with Inkscape (http://www.inkscape.org/) -->
<svg
   xmlns:dc="http://purl.org/dc/elements/1.1/"
   xmlns:cc="http://web.resource.org/cc/"
   xmlns:rdf="http://www.w3.org/1999/02/22-rdf-syntax-ns#"
   xmlns:svg="http://www.w3.org/2000/svg"
   xmlns="http://www.w3.org/2000/svg"
   xmlns:sodipodi="http://sodipodi.sourceforge.net/DTD/sodipodi-0.dtd"
   xmlns:inkscape="http://www.inkscape.org/namespaces/inkscape"
   id="svg2211"
   sodipodi:version="0.32"
   inkscape:version="0.45.1"
   width="336.60001"
   height="173.60001"
   version="1.0"
   sodipodi:docbase="C:\Documents and Settings\Sharayanan\Bureau\Wiki"
   sodipodi:docname="Single cycloid.svg"
   inkscape:output_extension="org.inkscape.output.svg.inkscape">
  <metadata
     id="metadata2216">
    <rdf:RDF>
      <cc:Work
         rdf:about="">
        <dc:format>image/svg+xml</dc:format>
        <dc:type
           rdf:resource="http://purl.org/dc/dcmitype/StillImage" />
      </cc:Work>
    </rdf:RDF>
  </metadata>
  <defs
     id="defs2214" />
  <sodipodi:namedview
     inkscape:window-height="747"
     inkscape:window-width="1280"
     inkscape:pageshadow="2"
     inkscape:pageopacity="0.0"
     guidetolerance="10.0"
     gridtolerance="10.0"
     objecttolerance="10.0"
     borderopacity="1.0"
     bordercolor="#666666"
     pagecolor="#ffffff"
     id="base"
     inkscape:zoom="1"
     inkscape:cx="170.70172"
     inkscape:cy="86.25057"
     inkscape:window-x="0"
     inkscape:window-y="22"
     inkscape:current-layer="svg2211" />
  <path
     style="fill:none;fill-rule:evenodd;stroke:#ff0000;stroke-width:1px;stroke-linecap:butt;stroke-linejoin:miter;stroke-opacity:1"
     d="M 27.914468,134.77352 C 27.914468,98.484711 90.545979,48.26598 164.94913,48.26598 C 236.81626,48.26598 301.98379,97.431278 301.98379,134.51975"
     id="path3157"
     sodipodi:nodetypes="ccc"
     transform="matrix(-1,0,0,1,330.15203,0)" />
  <path
     style="fill:none;fill-rule:evenodd;stroke:#000000;stroke-width:1px;stroke-linecap:butt;stroke-linejoin:miter;stroke-opacity:1"
     d="M 52.849372,143.3682 L 353.15816,143.3682"
     id="path2220"
     transform="translate(-32.7,-8.7)" />
  <path
     style="fill:none;fill-rule:evenodd;stroke:#000000;stroke-width:1px;stroke-linecap:butt;stroke-linejoin:miter;stroke-opacity:1"
     d="M 60.932218,150.20753 L 60.932218,29.586611"
     id="path2222"
     sodipodi:nodetypes="cc"
     transform="translate(-32.7,-8.7)" />
  <path
     transform="translate(241.3,-8.7)"
     style="fill:none;fill-rule:evenodd;stroke:#000000;stroke-width:1px;stroke-linecap:butt;stroke-linejoin:miter;stroke-opacity:1"
     d="M 60.932218,150.82929 L 60.932218,135.28536"
     id="path2230"
     sodipodi:nodetypes="cc" />
  <path
     sodipodi:nodetypes="cc"
     id="path2232"
     d="M 60.932218,150.82929 L 60.932218,135.28536"
     style="fill:none;fill-rule:evenodd;stroke:#000000;stroke-width:1px;stroke-linecap:butt;stroke-linejoin:miter;stroke-opacity:1"
     transform="translate(104.3,-8.7)" />
  <path
     transform="matrix(0,1,-1,0,171.04602,30.160882)"
     style="fill:none;fill-rule:evenodd;stroke:#000000;stroke-width:1px;stroke-linecap:butt;stroke-linejoin:miter;stroke-opacity:1"
     d="M 60.932218,150.82929 L 60.932218,135.28536"
     id="path4178"
     sodipodi:nodetypes="cc" />
  <path
     sodipodi:nodetypes="cc"
     id="path4182"
     d="M 60.932218,150.82929 L 60.932218,135.28536"
     style="fill:none;fill-rule:evenodd;stroke:#000000;stroke-width:1px;stroke-linecap:butt;stroke-linejoin:miter;stroke-opacity:1"
     transform="matrix(0,1,-1,0,171.04602,-13.414219)" />
  <path
     style="fill:none;fill-rule:evenodd;stroke:#000000;stroke-width:1px;stroke-linecap:butt;stroke-linejoin:miter;stroke-opacity:1"
     d="M 55.958159,38.912971 L 60.932218,28.343096 L 65.284519,39.534728"
     id="path4186"
     transform="matrix(0.9366426,0,0,1.0027577,-28.548311,-8.7935943)" />
  <path
     transform="matrix(0,0.9366426,-1.0027577,0,350.26472,77.836625)"
     id="path4188"
     d="M 55.958159,38.912971 L 60.932218,28.343096 L 65.284519,39.534728"
     style="fill:none;fill-rule:evenodd;stroke:#000000;stroke-width:1px;stroke-linecap:butt;stroke-linejoin:miter;stroke-opacity:1" />
  <path
     transform="translate(0.253138,26.740167)"
     style=""
     d="M 19.519531,59.835461 L 21.453125,59.835461 L 21.453125,53.161633 L 19.349609,53.583508 L 19.349609,52.505383 L 21.441406,52.083508 L 22.625,52.083508 L 22.625,59.835461 L 24.558594,59.835461 L 24.558594,60.831555 L 19.519531,60.831555 L 19.519531,59.835461 z "
     id="flowRoot4190" />
  <path
     transform="translate(0.253138,-16.638076)"
     style=""
     d="M 20.333984,59.835461 L 24.464844,59.835461 L 24.464844,60.831555 L 18.910156,60.831555 L 18.910156,59.835461 C 19.359374,59.370619 19.971678,58.746596 20.74707,57.963391 C 21.522457,57.180191 22.009762,56.675309 22.208984,56.448742 C 22.587886,56.022966 22.852534,55.662615 23.00293,55.367688 C 23.153315,55.072772 23.22851,54.782733 23.228516,54.497571 C 23.22851,54.032734 23.065425,53.653828 22.739258,53.360852 C 22.413082,53.067891 21.988277,52.921407 21.464844,52.921399 C 21.093747,52.921407 20.702146,52.98586 20.290039,53.114758 C 19.877928,53.243672 19.437499,53.438984 18.96875,53.700696 L 18.96875,52.505383 C 19.445311,52.313985 19.890623,52.169454 20.304688,52.071789 C 20.718747,51.974142 21.097653,51.925314 21.441406,51.925305 C 22.347652,51.925314 23.070307,52.151876 23.609375,52.604992 C 24.148431,53.058125 24.417962,53.663593 24.417969,54.421399 C 24.417962,54.78078 24.35058,55.1216 24.21582,55.44386 C 24.081049,55.76613 23.835932,56.146013 23.480469,56.583508 C 23.382807,56.696793 23.072261,57.023941 22.548828,57.564953 C 22.025387,58.105972 21.287106,58.862807 20.333984,59.835461 L 20.333984,59.835461 z "
     id="flowRoot4198" />
  <path
     transform="translate(0.253138,70.874896)"
     style=""
     d="M 21.845703,52.862805 C 21.236325,52.862813 20.778318,53.162617 20.47168,53.762219 C 20.165037,54.361835 20.011717,55.263201 20.011719,56.466321 C 20.011717,57.665542 20.165037,58.564956 20.47168,59.164563 C 20.778318,59.764173 21.236325,60.063978 21.845703,60.063977 C 22.45898,60.063978 22.91894,59.764173 23.225586,59.164563 C 23.532221,58.564956 23.685541,57.665542 23.685547,56.466321 C 23.685541,55.263201 23.532221,54.361835 23.225586,53.762219 C 22.91894,53.162617 22.45898,52.862813 21.845703,52.862805 L 21.845703,52.862805 z M 21.845703,51.925305 C 22.826167,51.925314 23.57519,52.313009 24.092773,53.088391 C 24.610345,53.863788 24.869134,54.989764 24.869141,56.466321 C 24.869134,57.93898 24.610345,59.063002 24.092773,59.838391 C 23.57519,60.613782 22.826167,61.001477 21.845703,61.001477 C 20.865232,61.001477 20.116209,60.613782 19.598633,59.838391 C 19.081054,59.063002 18.822265,57.93898 18.822266,56.466321 C 18.822265,54.989764 19.081054,53.863788 19.598633,53.088391 C 20.116209,52.313009 20.865232,51.925314 21.845703,51.925305 L 21.845703,51.925305 z "
     id="flowRoot4206" />
  <path
     transform="translate(143.63138,91.98368)"
     style=""
     d="M 24.822266,55.481946 L 23.755859,55.481946 L 23.140625,58.335461 C 23.082026,58.624526 23.038081,58.858901 23.008789,59.038586 C 22.979487,59.218275 22.964839,59.351088 22.964844,59.437024 C 22.964839,59.663587 23.010737,59.82472 23.102539,59.920422 C 23.194331,60.016126 23.347651,60.063978 23.5625,60.063977 C 23.628901,60.063978 23.707026,60.059095 23.796875,60.049328 C 23.886713,60.039563 24.0039,60.024915 24.148438,60.005383 L 23.972656,60.831555 C 23.855463,60.862805 23.743158,60.886242 23.635742,60.901867 C 23.528315,60.917492 23.423823,60.925305 23.322266,60.925305 C 22.861323,60.925305 22.512691,60.825696 22.276367,60.626477 C 22.040035,60.427258 21.921871,60.132337 21.921875,59.741711 C 21.921871,59.562025 21.942379,59.331556 21.983398,59.050305 C 22.02441,58.769057 22.111324,58.313979 22.244141,57.685071 L 22.712891,55.481946 L 20.802734,55.481946 L 19.666016,60.831555 L 18.605469,60.831555 L 19.748047,55.481946 L 19.507813,55.481946 C 19.296874,55.481951 19.132811,55.544451 19.015625,55.669446 C 18.898437,55.794451 18.822265,55.991716 18.787109,56.261242 L 17.849609,56.261242 C 17.958984,55.61281 18.15332,55.166521 18.432617,54.922375 C 18.711913,54.678241 19.173827,54.556171 19.818359,54.556164 L 25.027344,54.556164 L 24.822266,55.481946 z "
     id="flowRoot4214" />
  <path
     transform="translate(277.63138,91.98368)"
     style=""
     d="M 20.333984,59.835461 L 24.464844,59.835461 L 24.464844,60.831555 L 18.910156,60.831555 L 18.910156,59.835461 C 19.359374,59.370619 19.971678,58.746596 20.74707,57.963391 C 21.522457,57.180191 22.009762,56.675309 22.208984,56.448742 C 22.587886,56.022966 22.852534,55.662615 23.00293,55.367688 C 23.153315,55.072772 23.22851,54.782733 23.228516,54.497571 C 23.22851,54.032734 23.065425,53.653828 22.739258,53.360852 C 22.413082,53.067891 21.988277,52.921407 21.464844,52.921399 C 21.093747,52.921407 20.702146,52.98586 20.290039,53.114758 C 19.877928,53.243672 19.437499,53.438984 18.96875,53.700696 L 18.96875,52.505383 C 19.445311,52.313985 19.890623,52.169454 20.304688,52.071789 C 20.718747,51.974142 21.097653,51.925314 21.441406,51.925305 C 22.347652,51.925314 23.070307,52.151876 23.609375,52.604992 C 24.148431,53.058125 24.417962,53.663593 24.417969,54.421399 C 24.417962,54.78078 24.35058,55.1216 24.21582,55.44386 C 24.081049,55.76613 23.835932,56.146013 23.480469,56.583508 C 23.382807,56.696793 23.072261,57.023941 22.548828,57.564953 C 22.025387,58.105972 21.287106,58.862807 20.333984,59.835461 L 20.333984,59.835461 z M 32.462891,55.481946 L 31.396484,55.481946 L 30.78125,58.335461 C 30.722651,58.624526 30.678706,58.858901 30.649414,59.038586 C 30.620112,59.218275 30.605464,59.351088 30.605469,59.437024 C 30.605464,59.663587 30.651362,59.82472 30.743164,59.920422 C 30.834956,60.016126 30.988276,60.063978 31.203125,60.063977 C 31.269526,60.063978 31.347651,60.059095 31.4375,60.049328 C 31.527338,60.039563 31.644525,60.024915 31.789063,60.005383 L 31.613281,60.831555 C 31.496088,60.862805 31.383783,60.886242 31.276367,60.901867 C 31.16894,60.917492 31.064448,60.925305 30.962891,60.925305 C 30.501948,60.925305 30.153316,60.825696 29.916992,60.626477 C 29.68066,60.427258 29.562496,60.132337 29.5625,59.741711 C 29.562496,59.562025 29.583004,59.331556 29.624023,59.050305 C 29.665035,58.769057 29.751949,58.313979 29.884766,57.685071 L 30.353516,55.481946 L 28.443359,55.481946 L 27.306641,60.831555 L 26.246094,60.831555 L 27.388672,55.481946 L 27.148438,55.481946 C 26.937499,55.481951 26.773436,55.544451 26.65625,55.669446 C 26.539062,55.794451 26.46289,55.991716 26.427734,56.261242 L 25.490234,56.261242 C 25.599609,55.61281 25.793945,55.166521 26.073242,54.922375 C 26.352538,54.678241 26.814452,54.556171 27.458984,54.556164 L 32.667969,54.556164 L 32.462891,55.481946 z "
     id="flowRoot4222" />
  <path
     transform="translate(6.253137,92.60544)"
     style=""
     d="M 21.845703,52.862805 C 21.236325,52.862813 20.778318,53.162617 20.47168,53.762219 C 20.165037,54.361835 20.011717,55.263201 20.011719,56.466321 C 20.011717,57.665542 20.165037,58.564956 20.47168,59.164563 C 20.778318,59.764173 21.236325,60.063978 21.845703,60.063977 C 22.45898,60.063978 22.91894,59.764173 23.225586,59.164563 C 23.532221,58.564956 23.685541,57.665542 23.685547,56.466321 C 23.685541,55.263201 23.532221,54.361835 23.225586,53.762219 C 22.91894,53.162617 22.45898,52.862813 21.845703,52.862805 L 21.845703,52.862805 z M 21.845703,51.925305 C 22.826167,51.925314 23.57519,52.313009 24.092773,53.088391 C 24.610345,53.863788 24.869134,54.989764 24.869141,56.466321 C 24.869134,57.93898 24.610345,59.063002 24.092773,59.838391 C 23.57519,60.613782 22.826167,61.001477 21.845703,61.001477 C 20.865232,61.001477 20.116209,60.613782 19.598633,59.838391 C 19.081054,59.063002 18.822265,57.93898 18.822266,56.466321 C 18.822265,54.989764 19.081054,53.863788 19.598633,53.088391 C 20.116209,52.313009 20.865232,51.925314 21.845703,51.925305 L 21.845703,51.925305 z "
     id="flowRoot4230" />
</svg>
